<?xml version="1.0" encoding="UTF-8" standalone="no"?>
<!DOCTYPE svg PUBLIC "-//W3C//DTD SVG 1.1//EN"
 "http://www.w3.org/Graphics/SVG/1.1/DTD/svg11.dtd">
<!-- Generated by graphviz version 2.38.0 (20140413.2041)
 -->
<!-- Title: Control&#45;flow graph for function &#39;function_4d0()&#39;. Pages: 1 -->
<svg width="368pt" height="231pt"
 viewBox="0.00 0.00 368.00 231.00" xmlns="http://www.w3.org/2000/svg" xmlns:xlink="http://www.w3.org/1999/xlink">
<g id="graph0" class="graph" transform="scale(1 1) rotate(0) translate(4 227)">
<title>Control&#45;flow graph for function &#39;function_4d0()&#39;.</title>
<polygon fill="white" stroke="none" points="-4,4 -4,-227 364,-227 364,4 -4,4"/>
<text text-anchor="middle" x="180" y="-7.8" font-family="Times,serif" font-size="14.00">Control&#45;flow graph for function &#39;function_4d0()&#39;.</text>
<!-- Node0x33d9e30 -->
<g id="node1" class="node"><title>Node0x33d9e30</title>
<polygon fill="none" stroke="black" points="150.5,-186.5 150.5,-222.5 209.5,-222.5 209.5,-186.5 150.5,-186.5"/>
<text text-anchor="start" x="158.5" y="-200.8" font-family="Times,serif" font-size="14.00">entry:</text>
</g>
<!-- Node0x33ea750 -->
<g id="node2" class="node"><title>Node0x33ea750</title>
<polygon fill="none" stroke="black" points="123.5,-96.5 123.5,-149.5 236.5,-149.5 236.5,-96.5 123.5,-96.5"/>
<text text-anchor="start" x="131.5" y="-134.3" font-family="Times,serif" font-size="14.00">0x4d0:</text>
<text text-anchor="start" x="131.5" y="-119.3" font-family="Times,serif" font-size="14.00"> result</text>
<text text-anchor="start" x="131.5" y="-104.3" font-family="Times,serif" font-size="14.00"> return result</text>
</g>
<!-- Node0x33d9e30&#45;&gt;Node0x33ea750 -->
<g id="edge1" class="edge"><title>Node0x33d9e30&#45;&gt;Node0x33ea750</title>
<path fill="none" stroke="black" d="M180,-186.25C180,-178.486 180,-169.014 180,-159.825"/>
<polygon fill="black" stroke="black" points="183.5,-159.676 180,-149.676 176.5,-159.676 183.5,-159.676"/>
</g>
<!-- Node0x33d99b0 -->
<g id="node3" class="node"><title>Node0x33d99b0</title>
<polygon fill="none" stroke="black" points="153,-23.5 153,-59.5 207,-59.5 207,-23.5 153,-23.5"/>
<text text-anchor="start" x="161" y="-37.8" font-family="Times,serif" font-size="14.00">exit:</text>
</g>
<!-- Node0x33ea750&#45;&gt;Node0x33d99b0 -->
<g id="edge2" class="edge"><title>Node0x33ea750&#45;&gt;Node0x33d99b0</title>
<path fill="none" stroke="black" d="M180,-96.4081C180,-87.9823 180,-78.5803 180,-70.0174"/>
<polygon fill="black" stroke="black" points="183.5,-69.7564 180,-59.7564 176.5,-69.7565 183.5,-69.7564"/>
</g>
</g>
</svg>
