<?xml version="1.0" encoding="UTF-8" standalone="no"?>
<!DOCTYPE svg PUBLIC "-//W3C//DTD SVG 1.1//EN"
 "http://www.w3.org/Graphics/SVG/1.1/DTD/svg11.dtd">
<!-- Generated by graphviz version 2.38.0 (20140413.2041)
 -->
<!-- Title: Control&#45;flow graph for function &#39;client_secret(*a1)&#39;. Pages: 1 -->
<svg width="872pt" height="758pt"
 viewBox="0.00 0.00 871.50 758.00" xmlns="http://www.w3.org/2000/svg" xmlns:xlink="http://www.w3.org/1999/xlink">
<g id="graph0" class="graph" transform="scale(1 1) rotate(0) translate(4 754)">
<title>Control&#45;flow graph for function &#39;client_secret(*a1)&#39;.</title>
<polygon fill="white" stroke="none" points="-4,4 -4,-754 867.5,-754 867.5,4 -4,4"/>
<text text-anchor="middle" x="431.75" y="-7.8" font-family="Times,serif" font-size="14.00">Control&#45;flow graph for function &#39;client_secret(*a1)&#39;.</text>
<!-- Node0x33dd090 -->
<g id="node1" class="node"><title>Node0x33dd090</title>
<polygon fill="none" stroke="black" points="539,-711.5 539,-749.5 598,-749.5 598,-711.5 539,-711.5"/>
<text text-anchor="start" x="547" y="-734.3" font-family="Times,serif" font-size="14.00">entry:</text>
<text text-anchor="start" x="547" y="-719.3" font-family="Times,serif" font-size="14.00"> a1</text>
</g>
<!-- Node0x337afd0 -->
<g id="node2" class="node"><title>Node0x337afd0</title>
<polygon fill="none" stroke="black" points="273.5,-590.5 273.5,-673.5 863.5,-673.5 863.5,-590.5 273.5,-590.5"/>
<text text-anchor="start" x="281.5" y="-658.3" font-family="Times,serif" font-size="14.00">v1 = g3</text>
<text text-anchor="start" x="281.5" y="-643.3" font-family="Times,serif" font-size="14.00"> g3 = (function_4d0() + 6747)</text>
<text text-anchor="start" x="281.5" y="-628.3" font-family="Times,serif" font-size="14.00"> v2 = get_generated_key(IntToPtrCastExpr&lt;ptr&gt;(ExtCastExpr&lt;int32&gt;(*(a1))))</text>
<text text-anchor="start" x="281.5" y="-613.3" font-family="Times,serif" font-size="14.00"> mem = PtrToIntCastExpr&lt;int32&gt;(malloc(g7))</text>
<text text-anchor="start" x="281.5" y="-598.3" font-family="Times,serif" font-size="14.00"> v3 = 0</text>
</g>
<!-- Node0x33dd090&#45;&gt;Node0x337afd0 -->
<g id="edge1" class="edge"><title>Node0x33dd090&#45;&gt;Node0x337afd0</title>
<path fill="none" stroke="black" d="M568.5,-711.349C568.5,-703.488 568.5,-693.852 568.5,-684.061"/>
<polygon fill="black" stroke="black" points="572,-683.87 568.5,-673.87 565,-683.87 572,-683.87"/>
</g>
<!-- Node0x3384470 -->
<g id="node3" class="node"><title>Node0x3384470</title>
<polygon fill="none" stroke="black" points="520,-516.5 520,-552.5 617,-552.5 617,-516.5 520,-516.5"/>
<text text-anchor="start" x="528" y="-530.8" font-family="Times,serif" font-size="14.00">while True:</text>
</g>
<!-- Node0x337afd0&#45;&gt;Node0x3384470 -->
<g id="edge2" class="edge"><title>Node0x337afd0&#45;&gt;Node0x3384470</title>
<path fill="none" stroke="black" d="M568.5,-590.499C568.5,-581.206 568.5,-571.537 568.5,-562.946"/>
<polygon fill="black" stroke="black" points="572,-562.749 568.5,-552.749 565,-562.749 572,-562.749"/>
</g>
<!-- Node0x33af780 -->
<g id="node4" class="node"><title>Node0x33af780</title>
<polygon fill="none" stroke="black" points="0,-321.5 0,-464.5 627,-464.5 627,-321.5 0,-321.5"/>
<text text-anchor="start" x="8" y="-449.3" font-family="Times,serif" font-size="14.00">v4 = (v3 + 1)</text>
<text text-anchor="start" x="8" y="-434.3" font-family="Times,serif" font-size="14.00"> g4 = v4</text>
<text text-anchor="start" x="8" y="-419.3" font-family="Times,serif" font-size="14.00"> v5 = (4 * (v3 / 4))</text>
<text text-anchor="start" x="8" y="-404.3" font-family="Times,serif" font-size="14.00"> v6 = (v3 % 4)</text>
<text text-anchor="start" x="8" y="-389.3" font-family="Times,serif" font-size="14.00"> v7 = (v6 ^ 3)</text>
<text text-anchor="start" x="8" y="-374.3" font-family="Times,serif" font-size="14.00"> g1 = v2</text>
<text text-anchor="start" x="8" y="-359.3" font-family="Times,serif" font-size="14.00"> v8 = *(IntToPtrCastExpr&lt;ptr&gt;((v5 + v2)))</text>
<text text-anchor="start" x="8" y="-344.3" font-family="Times,serif" font-size="14.00"> v9 = (0 if (v6 == 3) else (8 * v7))</text>
<text text-anchor="start" x="8" y="-329.3" font-family="Times,serif" font-size="14.00"> *(IntToPtrCastExpr&lt;ptr&gt;((v7 + (v5 + mem)))) = TruncCastExpr&lt;int8&gt;((v8 &gt;&gt; v9))</text>
</g>
<!-- Node0x3384470&#45;&gt;Node0x33af780 -->
<g id="edge3" class="edge"><title>Node0x3384470&#45;&gt;Node0x33af780</title>
<path fill="none" stroke="black" d="M537.232,-516.395C515.168,-504.324 483.912,-487.226 451.738,-469.624"/>
<polygon fill="black" stroke="black" points="453.099,-466.379 442.646,-464.65 449.739,-472.52 453.099,-466.379"/>
<text text-anchor="middle" x="517.5" y="-486.8" font-family="Times,serif" font-size="14.00">True</text>
</g>
<!-- Node0x33b73d0 -->
<g id="node5" class="node"><title>Node0x33b73d0</title>
<polygon fill="none" stroke="black" points="256.5,-247.5 256.5,-283.5 370.5,-283.5 370.5,-247.5 256.5,-247.5"/>
<text text-anchor="start" x="264.5" y="-261.8" font-family="Times,serif" font-size="14.00">if (v4 == 40):</text>
</g>
<!-- Node0x33af780&#45;&gt;Node0x33b73d0 -->
<g id="edge4" class="edge"><title>Node0x33af780&#45;&gt;Node0x33b73d0</title>
<path fill="none" stroke="black" d="M313.5,-321.181C313.5,-311.439 313.5,-301.961 313.5,-293.707"/>
<polygon fill="black" stroke="black" points="317,-293.642 313.5,-283.642 310,-293.642 317,-293.642"/>
</g>
<!-- Node0x33911e0 -->
<g id="node6" class="node"><title>Node0x33911e0</title>
<polygon fill="none" stroke="black" points="134.5,-97.5 134.5,-195.5 472.5,-195.5 472.5,-97.5 134.5,-97.5"/>
<text text-anchor="start" x="142.5" y="-180.3" font-family="Times,serif" font-size="14.00">0x5f1:</text>
<text text-anchor="start" x="142.5" y="-165.3" font-family="Times,serif" font-size="14.00"> *(IntToPtrCastExpr&lt;ptr&gt;((mem + 40))) = 0</text>
<text text-anchor="start" x="142.5" y="-150.3" font-family="Times,serif" font-size="14.00"> g3 = v1</text>
<text text-anchor="start" x="142.5" y="-135.3" font-family="Times,serif" font-size="14.00"> v10</text>
<text text-anchor="start" x="142.5" y="-120.3" font-family="Times,serif" font-size="14.00"> g2 = v10</text>
<text text-anchor="start" x="142.5" y="-105.3" font-family="Times,serif" font-size="14.00"> return mem</text>
</g>
<!-- Node0x33b73d0&#45;&gt;Node0x33911e0 -->
<g id="edge5" class="edge"><title>Node0x33b73d0&#45;&gt;Node0x33911e0</title>
<path fill="none" stroke="black" d="M312.046,-247.487C311.091,-236.309 309.779,-220.968 308.471,-205.658"/>
<polygon fill="black" stroke="black" points="311.954,-205.311 307.615,-195.646 304.979,-205.907 311.954,-205.311"/>
<text text-anchor="middle" x="345" y="-217.8" font-family="Times,serif" font-size="14.00">v4 == 40</text>
</g>
<!-- Node0x33efa80 -->
<g id="node7" class="node"><title>Node0x33efa80</title>
<polygon fill="none" stroke="black" points="490,-127.5 490,-165.5 819,-165.5 819,-127.5 490,-127.5"/>
<text text-anchor="start" x="498" y="-150.3" font-family="Times,serif" font-size="14.00">after_if_5e4_0.dec_label_pc_5c0_crit_edge:</text>
<text text-anchor="start" x="498" y="-135.3" font-family="Times,serif" font-size="14.00"> v3 = g4</text>
</g>
<!-- Node0x33b73d0&#45;&gt;Node0x33efa80 -->
<g id="edge6" class="edge"><title>Node0x33b73d0&#45;&gt;Node0x33efa80</title>
<path fill="none" stroke="black" d="M363.084,-247.487C423.612,-226.719 526.028,-191.58 591.923,-168.971"/>
<polygon fill="black" stroke="black" points="593.449,-172.148 601.772,-165.592 591.177,-165.526 593.449,-172.148"/>
<text text-anchor="middle" x="485" y="-217.8" font-family="Times,serif" font-size="14.00">v4 != 40</text>
</g>
<!-- Node0x3394ec0 -->
<g id="node8" class="node"><title>Node0x3394ec0</title>
<polygon fill="none" stroke="black" points="276.5,-23.5 276.5,-59.5 330.5,-59.5 330.5,-23.5 276.5,-23.5"/>
<text text-anchor="start" x="284.5" y="-37.8" font-family="Times,serif" font-size="14.00">exit:</text>
</g>
<!-- Node0x33911e0&#45;&gt;Node0x3394ec0 -->
<g id="edge7" class="edge"><title>Node0x33911e0&#45;&gt;Node0x3394ec0</title>
<path fill="none" stroke="black" d="M303.5,-97.3173C303.5,-87.893 303.5,-78.32 303.5,-69.8676"/>
<polygon fill="black" stroke="black" points="307,-69.856 303.5,-59.8561 300,-69.8561 307,-69.856"/>
</g>
<!-- Node0x33efa80&#45;&gt;Node0x3384470 -->
<g id="edge8" class="edge"><title>Node0x33efa80&#45;&gt;Node0x3384470</title>
<path fill="none" stroke="black" d="M657.654,-165.725C665.49,-216.02 682.025,-359.987 635.5,-465 627.783,-482.418 613.562,-497.961 600.2,-509.82"/>
<polygon fill="black" stroke="black" points="597.849,-507.225 592.488,-516.364 602.378,-512.563 597.849,-507.225"/>
</g>
</g>
</svg>
