<?xml version="1.0" encoding="UTF-8" standalone="no"?>
<!DOCTYPE svg PUBLIC "-//W3C//DTD SVG 1.1//EN"
 "http://www.w3.org/Graphics/SVG/1.1/DTD/svg11.dtd">
<!-- Generated by graphviz version 2.38.0 (20140413.2041)
 -->
<!-- Title: Control&#45;flow graph for function &#39;function_4a6(a1)&#39;. Pages: 1 -->
<svg width="385pt" height="248pt"
 viewBox="0.00 0.00 385.00 248.00" xmlns="http://www.w3.org/2000/svg" xmlns:xlink="http://www.w3.org/1999/xlink">
<g id="graph0" class="graph" transform="scale(1 1) rotate(0) translate(4 244)">
<title>Control&#45;flow graph for function &#39;function_4a6(a1)&#39;.</title>
<polygon fill="white" stroke="none" points="-4,4 -4,-244 381,-244 381,4 -4,4"/>
<text text-anchor="middle" x="188.5" y="-7.8" font-family="Times,serif" font-size="14.00">Control&#45;flow graph for function &#39;function_4a6(a1)&#39;.</text>
<!-- Node0x3343690 -->
<g id="node1" class="node"><title>Node0x3343690</title>
<polygon fill="none" stroke="black" points="159,-201.5 159,-239.5 218,-239.5 218,-201.5 159,-201.5"/>
<text text-anchor="start" x="167" y="-224.3" font-family="Times,serif" font-size="14.00">entry:</text>
<text text-anchor="start" x="167" y="-209.3" font-family="Times,serif" font-size="14.00"> a1</text>
</g>
<!-- Node0x33d4960 -->
<g id="node2" class="node"><title>Node0x33d4960</title>
<polygon fill="none" stroke="black" points="114,-96.5 114,-164.5 263,-164.5 263,-96.5 114,-96.5"/>
<text text-anchor="start" x="122" y="-149.3" font-family="Times,serif" font-size="14.00">0x4a6:</text>
<text text-anchor="start" x="122" y="-134.3" font-family="Times,serif" font-size="14.00"> function_4d0()</text>
<text text-anchor="start" x="122" y="-119.3" font-family="Times,serif" font-size="14.00"> __stack_chk_fail()</text>
<text text-anchor="start" x="122" y="-104.3" font-family="Times,serif" font-size="14.00"> return g5</text>
</g>
<!-- Node0x3343690&#45;&gt;Node0x33d4960 -->
<g id="edge1" class="edge"><title>Node0x3343690&#45;&gt;Node0x33d4960</title>
<path fill="none" stroke="black" d="M188.5,-201.266C188.5,-193.502 188.5,-184.086 188.5,-174.717"/>
<polygon fill="black" stroke="black" points="192,-174.649 188.5,-164.65 185,-174.65 192,-174.649"/>
</g>
<!-- Node0x33bce10 -->
<g id="node3" class="node"><title>Node0x33bce10</title>
<polygon fill="none" stroke="black" points="161.5,-23.5 161.5,-59.5 215.5,-59.5 215.5,-23.5 161.5,-23.5"/>
<text text-anchor="start" x="169.5" y="-37.8" font-family="Times,serif" font-size="14.00">exit:</text>
</g>
<!-- Node0x33d4960&#45;&gt;Node0x33bce10 -->
<g id="edge2" class="edge"><title>Node0x33d4960&#45;&gt;Node0x33bce10</title>
<path fill="none" stroke="black" d="M188.5,-96.1123C188.5,-87.3522 188.5,-78.0128 188.5,-69.6246"/>
<polygon fill="black" stroke="black" points="192,-69.6235 188.5,-59.6235 185,-69.6235 192,-69.6235"/>
</g>
</g>
</svg>
