<?xml version="1.0" encoding="UTF-8" standalone="no"?>
<!DOCTYPE svg PUBLIC "-//W3C//DTD SVG 1.1//EN"
 "http://www.w3.org/Graphics/SVG/1.1/DTD/svg11.dtd">
<!-- Generated by graphviz version 2.38.0 (20140413.2041)
 -->
<!-- Title: Control&#45;flow graph for function &#39;function_444(result)&#39;. Pages: 1 -->
<svg width="533pt" height="700pt"
 viewBox="0.00 0.00 533.00 700.00" xmlns="http://www.w3.org/2000/svg" xmlns:xlink="http://www.w3.org/1999/xlink">
<g id="graph0" class="graph" transform="scale(1 1) rotate(0) translate(4 696)">
<title>Control&#45;flow graph for function &#39;function_444(result)&#39;.</title>
<polygon fill="white" stroke="none" points="-4,4 -4,-696 529,-696 529,4 -4,4"/>
<text text-anchor="middle" x="262.5" y="-7.8" font-family="Times,serif" font-size="14.00">Control&#45;flow graph for function &#39;function_444(result)&#39;.</text>
<!-- Node0x3387000 -->
<g id="node1" class="node"><title>Node0x3387000</title>
<polygon fill="none" stroke="black" points="231,-653.5 231,-691.5 294,-691.5 294,-653.5 231,-653.5"/>
<text text-anchor="start" x="239" y="-676.3" font-family="Times,serif" font-size="14.00">entry:</text>
<text text-anchor="start" x="239" y="-661.3" font-family="Times,serif" font-size="14.00"> result</text>
</g>
<!-- Node0x33cb750 -->
<g id="node2" class="node"><title>Node0x33cb750</title>
<polygon fill="none" stroke="black" points="0,-337.5 0,-615.5 525,-615.5 525,-337.5 0,-337.5"/>
<text text-anchor="start" x="8" y="-600.3" font-family="Times,serif" font-size="14.00">v1 = g1</text>
<text text-anchor="start" x="8" y="-585.3" font-family="Times,serif" font-size="14.00"> v2 = IntToPtrCastExpr&lt;ptr&gt;(v1)</text>
<text text-anchor="start" x="8" y="-570.3" font-family="Times,serif" font-size="14.00"> *(v2) = TruncCastExpr&lt;int8&gt;((ExtCastExpr&lt;int32&gt;(*(v2)) + v1))</text>
<text text-anchor="start" x="8" y="-555.3" font-family="Times,serif" font-size="14.00"> v3 = g1</text>
<text text-anchor="start" x="8" y="-540.3" font-family="Times,serif" font-size="14.00"> v4 = IntToPtrCastExpr&lt;ptr&gt;(v3)</text>
<text text-anchor="start" x="8" y="-525.3" font-family="Times,serif" font-size="14.00"> *(v4) = TruncCastExpr&lt;int8&gt;((ExtCastExpr&lt;int32&gt;(*(v4)) + v3))</text>
<text text-anchor="start" x="8" y="-510.3" font-family="Times,serif" font-size="14.00"> v5 = g1</text>
<text text-anchor="start" x="8" y="-495.3" font-family="Times,serif" font-size="14.00"> v6 = IntToPtrCastExpr&lt;ptr&gt;(v5)</text>
<text text-anchor="start" x="8" y="-480.3" font-family="Times,serif" font-size="14.00"> *(v6) = TruncCastExpr&lt;int8&gt;((ExtCastExpr&lt;int32&gt;(*(v6)) + v5))</text>
<text text-anchor="start" x="8" y="-465.3" font-family="Times,serif" font-size="14.00"> v7 = g1</text>
<text text-anchor="start" x="8" y="-450.3" font-family="Times,serif" font-size="14.00"> v8 = IntToPtrCastExpr&lt;ptr&gt;(v7)</text>
<text text-anchor="start" x="8" y="-435.3" font-family="Times,serif" font-size="14.00"> *(v8) = TruncCastExpr&lt;int8&gt;((ExtCastExpr&lt;int32&gt;(*(v8)) + v7))</text>
<text text-anchor="start" x="8" y="-420.3" font-family="Times,serif" font-size="14.00"> v9 = g1</text>
<text text-anchor="start" x="8" y="-405.3" font-family="Times,serif" font-size="14.00"> v10 = IntToPtrCastExpr&lt;ptr&gt;(v9)</text>
<text text-anchor="start" x="8" y="-390.3" font-family="Times,serif" font-size="14.00"> *(v10) = TruncCastExpr&lt;int8&gt;((ExtCastExpr&lt;int32&gt;(*(v10)) + v9))</text>
<text text-anchor="start" x="8" y="-375.3" font-family="Times,serif" font-size="14.00"> v11 = g1</text>
<text text-anchor="start" x="8" y="-360.3" font-family="Times,serif" font-size="14.00"> v12 = IntToPtrCastExpr&lt;ptr&gt;(v11)</text>
<text text-anchor="start" x="8" y="-345.3" font-family="Times,serif" font-size="14.00"> *(v12) = TruncCastExpr&lt;int8&gt;((ExtCastExpr&lt;int32&gt;(*(v12)) + v11))</text>
</g>
<!-- Node0x3387000&#45;&gt;Node0x33cb750 -->
<g id="edge1" class="edge"><title>Node0x3387000&#45;&gt;Node0x33cb750</title>
<path fill="none" stroke="black" d="M262.5,-653.249C262.5,-645.815 262.5,-636.506 262.5,-626.074"/>
<polygon fill="black" stroke="black" points="266,-625.753 262.5,-615.753 259,-625.753 266,-625.753"/>
</g>
<!-- Node0x33f0be0 -->
<g id="node3" class="node"><title>Node0x33f0be0</title>
<polygon fill="none" stroke="black" points="200.5,-263.5 200.5,-299.5 324.5,-299.5 324.5,-263.5 200.5,-263.5"/>
<text text-anchor="start" x="208.5" y="-277.8" font-family="Times,serif" font-size="14.00">if (result != 0):</text>
</g>
<!-- Node0x33cb750&#45;&gt;Node0x33f0be0 -->
<g id="edge2" class="edge"><title>Node0x33cb750&#45;&gt;Node0x33f0be0</title>
<path fill="none" stroke="black" d="M262.5,-337.29C262.5,-327.154 262.5,-317.779 262.5,-309.753"/>
<polygon fill="black" stroke="black" points="266,-309.702 262.5,-299.702 259,-309.702 266,-309.702"/>
</g>
<!-- Node0x3377f40 -->
<g id="node4" class="node"><title>Node0x3377f40</title>
<polygon fill="none" stroke="black" points="17,-173.5 17,-211.5 274,-211.5 274,-173.5 17,-173.5"/>
<text text-anchor="start" x="25" y="-196.3" font-family="Times,serif" font-size="14.00">0x45c:</text>
<text text-anchor="start" x="25" y="-181.3" font-family="Times,serif" font-size="14.00"> IntToPtrCastExpr&lt;ptr&gt;(result)()</text>
</g>
<!-- Node0x33f0be0&#45;&gt;Node0x3377f40 -->
<g id="edge3" class="edge"><title>Node0x33f0be0&#45;&gt;Node0x3377f40</title>
<path fill="none" stroke="black" d="M239.385,-263.312C221.786,-250.226 197.345,-232.052 177.812,-217.527"/>
<polygon fill="black" stroke="black" points="179.889,-214.71 169.776,-211.551 175.712,-220.327 179.889,-214.71"/>
<text text-anchor="middle" x="254" y="-233.8" font-family="Times,serif" font-size="14.00">result != 0</text>
</g>
<!-- Node0x339ce20 -->
<g id="node5" class="node"><title>Node0x339ce20</title>
<polygon fill="none" stroke="black" points="206,-97.5 206,-135.5 319,-135.5 319,-97.5 206,-97.5"/>
<text text-anchor="start" x="214" y="-120.3" font-family="Times,serif" font-size="14.00">0x45e:</text>
<text text-anchor="start" x="214" y="-105.3" font-family="Times,serif" font-size="14.00"> return result</text>
</g>
<!-- Node0x33f0be0&#45;&gt;Node0x339ce20 -->
<g id="edge4" class="edge"><title>Node0x33f0be0&#45;&gt;Node0x339ce20</title>
<path fill="none" stroke="black" d="M283.948,-263.337C289.03,-258.051 293.765,-251.81 296.5,-245 309.959,-211.488 293.95,-170.902 279.661,-144.661"/>
<polygon fill="black" stroke="black" points="282.532,-142.629 274.533,-135.682 276.453,-146.101 282.532,-142.629"/>
<text text-anchor="middle" x="344" y="-188.8" font-family="Times,serif" font-size="14.00">result == 0</text>
</g>
<!-- Node0x3377f40&#45;&gt;Node0x339ce20 -->
<g id="edge5" class="edge"><title>Node0x3377f40&#45;&gt;Node0x339ce20</title>
<path fill="none" stroke="black" d="M174.121,-173.398C189.419,-163.722 208.443,-151.69 224.918,-141.27"/>
<polygon fill="black" stroke="black" points="227.188,-143.975 233.769,-135.672 223.446,-138.059 227.188,-143.975"/>
</g>
<!-- Node0x33e5510 -->
<g id="node6" class="node"><title>Node0x33e5510</title>
<polygon fill="none" stroke="black" points="235.5,-23.5 235.5,-59.5 289.5,-59.5 289.5,-23.5 235.5,-23.5"/>
<text text-anchor="start" x="243.5" y="-37.8" font-family="Times,serif" font-size="14.00">exit:</text>
</g>
<!-- Node0x339ce20&#45;&gt;Node0x33e5510 -->
<g id="edge6" class="edge"><title>Node0x339ce20&#45;&gt;Node0x33e5510</title>
<path fill="none" stroke="black" d="M262.5,-97.4551C262.5,-89.2008 262.5,-79.2377 262.5,-70.0742"/>
<polygon fill="black" stroke="black" points="266,-69.8347 262.5,-59.8347 259,-69.8347 266,-69.8347"/>
</g>
</g>
</svg>
