<?xml version="1.0" encoding="UTF-8" standalone="no"?>
<!DOCTYPE svg PUBLIC "-//W3C//DTD SVG 1.1//EN"
 "http://www.w3.org/Graphics/SVG/1.1/DTD/svg11.dtd">
<!-- Generated by graphviz version 2.38.0 (20140413.2041)
 -->
<!-- Title: Control&#45;flow graph for function &#39;get_random_key()&#39;. Pages: 1 -->
<svg width="393pt" height="216pt"
 viewBox="0.00 0.00 393.00 216.00" xmlns="http://www.w3.org/2000/svg" xmlns:xlink="http://www.w3.org/1999/xlink">
<g id="graph0" class="graph" transform="scale(1 1) rotate(0) translate(4 212)">
<title>Control&#45;flow graph for function &#39;get_random_key()&#39;.</title>
<polygon fill="white" stroke="none" points="-4,4 -4,-212 389,-212 389,4 -4,4"/>
<text text-anchor="middle" x="192.5" y="-7.8" font-family="Times,serif" font-size="14.00">Control&#45;flow graph for function &#39;get_random_key()&#39;.</text>
<!-- Node0x33d8ef0 -->
<g id="node1" class="node"><title>Node0x33d8ef0</title>
<polygon fill="none" stroke="black" points="163,-171.5 163,-207.5 222,-207.5 222,-171.5 163,-171.5"/>
<text text-anchor="start" x="171" y="-185.8" font-family="Times,serif" font-size="14.00">entry:</text>
</g>
<!-- Node0x339a210 -->
<g id="node2" class="node"><title>Node0x339a210</title>
<polygon fill="none" stroke="black" points="71,-96.5 71,-134.5 314,-134.5 314,-96.5 71,-96.5"/>
<text text-anchor="start" x="79" y="-119.3" font-family="Times,serif" font-size="14.00">0x4e0:</text>
<text text-anchor="start" x="79" y="-104.3" font-family="Times,serif" font-size="14.00"> return (function_685() + 6971)</text>
</g>
<!-- Node0x33d8ef0&#45;&gt;Node0x339a210 -->
<g id="edge1" class="edge"><title>Node0x33d8ef0&#45;&gt;Node0x339a210</title>
<path fill="none" stroke="black" d="M192.5,-171.437C192.5,-163.487 192.5,-153.813 192.5,-144.813"/>
<polygon fill="black" stroke="black" points="196,-144.699 192.5,-134.699 189,-144.699 196,-144.699"/>
</g>
<!-- Node0x33d1270 -->
<g id="node3" class="node"><title>Node0x33d1270</title>
<polygon fill="none" stroke="black" points="165.5,-23.5 165.5,-59.5 219.5,-59.5 219.5,-23.5 165.5,-23.5"/>
<text text-anchor="start" x="173.5" y="-37.8" font-family="Times,serif" font-size="14.00">exit:</text>
</g>
<!-- Node0x339a210&#45;&gt;Node0x33d1270 -->
<g id="edge2" class="edge"><title>Node0x339a210&#45;&gt;Node0x33d1270</title>
<path fill="none" stroke="black" d="M192.5,-96.3314C192.5,-88.394 192.5,-78.9095 192.5,-70.1285"/>
<polygon fill="black" stroke="black" points="196,-69.9177 192.5,-59.9177 189,-69.9177 196,-69.9177"/>
</g>
</g>
</svg>
