<?xml version="1.0" encoding="UTF-8" standalone="no"?>
<!DOCTYPE svg PUBLIC "-//W3C//DTD SVG 1.1//EN"
 "http://www.w3.org/Graphics/SVG/1.1/DTD/svg11.dtd">
<!-- Generated by graphviz version 2.38.0 (20140413.2041)
 -->
<!-- Title: Control&#45;flow graph for function &#39;get_generated_key(*a1)&#39;. Pages: 1 -->
<svg width="636pt" height="489pt"
 viewBox="0.00 0.00 635.50 489.00" xmlns="http://www.w3.org/2000/svg" xmlns:xlink="http://www.w3.org/1999/xlink">
<g id="graph0" class="graph" transform="scale(1 1) rotate(0) translate(4 485)">
<title>Control&#45;flow graph for function &#39;get_generated_key(*a1)&#39;.</title>
<polygon fill="white" stroke="none" points="-4,4 -4,-485 631.5,-485 631.5,4 -4,4"/>
<text text-anchor="middle" x="313.75" y="-7.8" font-family="Times,serif" font-size="14.00">Control&#45;flow graph for function &#39;get_generated_key(*a1)&#39;.</text>
<!-- Node0x3382e90 -->
<g id="node1" class="node"><title>Node0x3382e90</title>
<polygon fill="none" stroke="black" points="279.5,-442.5 279.5,-480.5 338.5,-480.5 338.5,-442.5 279.5,-442.5"/>
<text text-anchor="start" x="287.5" y="-465.3" font-family="Times,serif" font-size="14.00">entry:</text>
<text text-anchor="start" x="287.5" y="-450.3" font-family="Times,serif" font-size="14.00"> a1</text>
</g>
<!-- Node0x33b9f30 -->
<g id="node2" class="node"><title>Node0x33b9f30</title>
<polygon fill="none" stroke="black" points="78,-306.5 78,-404.5 540,-404.5 540,-306.5 78,-306.5"/>
<text text-anchor="start" x="86" y="-389.3" font-family="Times,serif" font-size="14.00">v1 = (function_4d0() + 6845)</text>
<text text-anchor="start" x="86" y="-374.3" font-family="Times,serif" font-size="14.00"> v2 = IntToPtrCastExpr&lt;ptr&gt;(get_random_key())</text>
<text text-anchor="start" x="86" y="-359.3" font-family="Times,serif" font-size="14.00"> v3 = 0</text>
<text text-anchor="start" x="86" y="-344.3" font-family="Times,serif" font-size="14.00"> v4 = v2[v3]</text>
<text text-anchor="start" x="86" y="-329.3" font-family="Times,serif" font-size="14.00"> *(IntToPtrCastExpr&lt;ptr&gt;(((v3 + 124) + v1))) = (a1[v3] ^ v4)</text>
<text text-anchor="start" x="86" y="-314.3" font-family="Times,serif" font-size="14.00"> v5 = 1</text>
</g>
<!-- Node0x3382e90&#45;&gt;Node0x33b9f30 -->
<g id="edge1" class="edge"><title>Node0x3382e90&#45;&gt;Node0x33b9f30</title>
<path fill="none" stroke="black" d="M309,-442.385C309,-434.528 309,-424.844 309,-414.842"/>
<polygon fill="black" stroke="black" points="312.5,-414.789 309,-404.789 305.5,-414.789 312.5,-414.789"/>
</g>
<!-- Node0x33a7a80 -->
<g id="node3" class="node"><title>Node0x33a7a80</title>
<polygon fill="none" stroke="black" points="240.5,-232.5 240.5,-268.5 377.5,-268.5 377.5,-232.5 240.5,-232.5"/>
<text text-anchor="start" x="248.5" y="-246.8" font-family="Times,serif" font-size="14.00">while (v5 != 40):</text>
</g>
<!-- Node0x33b9f30&#45;&gt;Node0x33a7a80 -->
<g id="edge2" class="edge"><title>Node0x33b9f30&#45;&gt;Node0x33a7a80</title>
<path fill="none" stroke="black" d="M309,-306.317C309,-296.893 309,-287.32 309,-278.868"/>
<polygon fill="black" stroke="black" points="312.5,-278.856 309,-268.856 305.5,-278.856 312.5,-278.856"/>
</g>
<!-- Node0x33a6bb0 -->
<g id="node4" class="node"><title>Node0x33a6bb0</title>
<polygon fill="none" stroke="black" points="0,-97.5 0,-180.5 462,-180.5 462,-97.5 0,-97.5"/>
<text text-anchor="start" x="8" y="-165.3" font-family="Times,serif" font-size="14.00">0x540:</text>
<text text-anchor="start" x="8" y="-150.3" font-family="Times,serif" font-size="14.00"> v3 = v5</text>
<text text-anchor="start" x="8" y="-135.3" font-family="Times,serif" font-size="14.00"> v4 = v2[v3]</text>
<text text-anchor="start" x="8" y="-120.3" font-family="Times,serif" font-size="14.00"> *(IntToPtrCastExpr&lt;ptr&gt;(((v3 + 124) + v1))) = (a1[v3] ^ v4)</text>
<text text-anchor="start" x="8" y="-105.3" font-family="Times,serif" font-size="14.00"> v5 = (v5 + 1)</text>
</g>
<!-- Node0x33a7a80&#45;&gt;Node0x33a6bb0 -->
<g id="edge3" class="edge"><title>Node0x33a7a80&#45;&gt;Node0x33a6bb0</title>
<path fill="none" stroke="black" d="M251.928,-232.423C244.052,-227.682 236.972,-221.653 232,-214 227.521,-207.106 225.219,-199.036 224.285,-190.807"/>
<polygon fill="black" stroke="black" points="227.777,-190.568 223.769,-180.761 220.786,-190.927 227.777,-190.568"/>
<text text-anchor="middle" x="263.5" y="-202.8" font-family="Times,serif" font-size="14.00">v5 != 40</text>
</g>
<!-- Node0x33f38d0 -->
<g id="node5" class="node"><title>Node0x33f38d0</title>
<polygon fill="none" stroke="black" points="480.5,-120 480.5,-158 627.5,-158 627.5,-120 480.5,-120"/>
<text text-anchor="start" x="488.5" y="-142.8" font-family="Times,serif" font-size="14.00">0x558:</text>
<text text-anchor="start" x="488.5" y="-127.8" font-family="Times,serif" font-size="14.00"> return (v1 + 124)</text>
</g>
<!-- Node0x33a7a80&#45;&gt;Node0x33f38d0 -->
<g id="edge4" class="edge"><title>Node0x33a7a80&#45;&gt;Node0x33f38d0</title>
<path fill="none" stroke="black" d="M351.253,-232.431C384.117,-218.962 430.743,-199.435 471,-181 483.576,-175.241 497.077,-168.721 509.459,-162.601"/>
<polygon fill="black" stroke="black" points="511.28,-165.605 518.677,-158.019 508.164,-159.337 511.28,-165.605"/>
<text text-anchor="middle" x="460.5" y="-202.8" font-family="Times,serif" font-size="14.00">v5 == 40</text>
</g>
<!-- Node0x33a6bb0&#45;&gt;Node0x33a7a80 -->
<g id="edge5" class="edge"><title>Node0x33a6bb0&#45;&gt;Node0x33a7a80</title>
<path fill="none" stroke="black" d="M280.98,-180.6C286.221,-186.371 291.062,-192.551 295,-199 299.286,-206.019 302.291,-214.377 304.385,-222.253"/>
<polygon fill="black" stroke="black" points="301.011,-223.204 306.644,-232.178 307.837,-221.65 301.011,-223.204"/>
</g>
<!-- Node0x33db3e0 -->
<g id="node6" class="node"><title>Node0x33db3e0</title>
<polygon fill="none" stroke="black" points="527,-23.5 527,-59.5 581,-59.5 581,-23.5 527,-23.5"/>
<text text-anchor="start" x="535" y="-37.8" font-family="Times,serif" font-size="14.00">exit:</text>
</g>
<!-- Node0x33f38d0&#45;&gt;Node0x33db3e0 -->
<g id="edge6" class="edge"><title>Node0x33f38d0&#45;&gt;Node0x33db3e0</title>
<path fill="none" stroke="black" d="M554,-119.587C554,-105.494 554,-85.8358 554,-69.8984"/>
<polygon fill="black" stroke="black" points="557.5,-69.5735 554,-59.5735 550.5,-69.5735 557.5,-69.5735"/>
</g>
</g>
</svg>
