<?xml version="1.0" encoding="UTF-8" standalone="no"?>
<!DOCTYPE svg PUBLIC "-//W3C//DTD SVG 1.1//EN"
 "http://www.w3.org/Graphics/SVG/1.1/DTD/svg11.dtd">
<!-- Generated by graphviz version 2.38.0 (20140413.2041)
 -->
<!-- Title: Control&#45;flow graph for function &#39;function_4dc()&#39;. Pages: 1 -->
<svg width="507pt" height="246pt"
 viewBox="0.00 0.00 507.00 246.00" xmlns="http://www.w3.org/2000/svg" xmlns:xlink="http://www.w3.org/1999/xlink">
<g id="graph0" class="graph" transform="scale(1 1) rotate(0) translate(4 242)">
<title>Control&#45;flow graph for function &#39;function_4dc()&#39;.</title>
<polygon fill="white" stroke="none" points="-4,4 -4,-242 503,-242 503,4 -4,4"/>
<text text-anchor="middle" x="249.5" y="-7.8" font-family="Times,serif" font-size="14.00">Control&#45;flow graph for function &#39;function_4dc()&#39;.</text>
<!-- Node0x33b6b50 -->
<g id="node1" class="node"><title>Node0x33b6b50</title>
<polygon fill="none" stroke="black" points="220,-201.5 220,-237.5 279,-237.5 279,-201.5 220,-201.5"/>
<text text-anchor="start" x="228" y="-215.8" font-family="Times,serif" font-size="14.00">entry:</text>
</g>
<!-- Node0x33dd130 -->
<g id="node2" class="node"><title>Node0x33dd130</title>
<polygon fill="none" stroke="black" points="0,-96.5 0,-164.5 499,-164.5 499,-96.5 0,-96.5"/>
<text text-anchor="start" x="8" y="-149.3" font-family="Times,serif" font-size="14.00">v1 = IntToPtrCastExpr&lt;ptr&gt;(g1)</text>
<text text-anchor="start" x="8" y="-134.3" font-family="Times,serif" font-size="14.00"> *(v1) = TruncCastExpr&lt;int8&gt;((ExtCastExpr&lt;int32&gt;(*(v1)) + g1))</text>
<text text-anchor="start" x="8" y="-119.3" font-family="Times,serif" font-size="14.00"> v2 = IntToPtrCastExpr&lt;ptr&gt;(g1)</text>
<text text-anchor="start" x="8" y="-104.3" font-family="Times,serif" font-size="14.00"> *(v2) = TruncCastExpr&lt;int8&gt;((ExtCastExpr&lt;int32&gt;(*(v2)) + g1))</text>
</g>
<!-- Node0x33b6b50&#45;&gt;Node0x33dd130 -->
<g id="edge1" class="edge"><title>Node0x33b6b50&#45;&gt;Node0x33dd130</title>
<path fill="none" stroke="black" d="M249.5,-201.312C249.5,-193.602 249.5,-184.126 249.5,-174.671"/>
<polygon fill="black" stroke="black" points="253,-174.503 249.5,-164.503 246,-174.503 253,-174.503"/>
</g>
<!-- Node0x33bb610 -->
<g id="node3" class="node"><title>Node0x33bb610</title>
<polygon fill="none" stroke="black" points="222.5,-23.5 222.5,-59.5 276.5,-59.5 276.5,-23.5 222.5,-23.5"/>
<text text-anchor="start" x="230.5" y="-37.8" font-family="Times,serif" font-size="14.00">exit:</text>
</g>
<!-- Node0x33dd130&#45;&gt;Node0x33bb610 -->
<g id="edge2" class="edge"><title>Node0x33dd130&#45;&gt;Node0x33bb610</title>
<path fill="none" stroke="black" d="M249.5,-96.1123C249.5,-87.3522 249.5,-78.0128 249.5,-69.6246"/>
<polygon fill="black" stroke="black" points="253,-69.6235 249.5,-59.6235 246,-69.6235 253,-69.6235"/>
</g>
</g>
</svg>
