<?xml version="1.0" encoding="UTF-8" standalone="no"?>
<!DOCTYPE svg PUBLIC "-//W3C//DTD SVG 1.1//EN"
 "http://www.w3.org/Graphics/SVG/1.1/DTD/svg11.dtd">
<!-- Generated by graphviz version 2.38.0 (20140413.2041)
 -->
<!-- Title: Call graph of the module. Pages: 1 -->
<svg width="963pt" height="360pt"
 viewBox="0.00 0.00 963.00 360.00" xmlns="http://www.w3.org/2000/svg" xmlns:xlink="http://www.w3.org/1999/xlink">
<g id="graph0" class="graph" transform="scale(1 1) rotate(0) translate(4 356)">
<title>Call graph of the module.</title>
<polygon fill="white" stroke="none" points="-4,4 -4,-356 959,-356 959,4 -4,4"/>
<text text-anchor="middle" x="477.5" y="-7.8" font-family="Times,serif" font-size="14.00">Call graph of the module.</text>
<!-- Node_function_3d0 -->
<g id="node1" class="node"><title>Node_function_3d0</title>
<polygon fill="none" stroke="black" points="591,-169.5 591,-205.5 701,-205.5 701,-169.5 591,-169.5"/>
<text text-anchor="middle" x="646" y="-183.8" font-family="Times,serif" font-size="14.00">function_3d0</text>
</g>
<!-- Node_function_4d0 -->
<g id="node5" class="node"><title>Node_function_4d0</title>
<polygon fill="none" stroke="black" points="288,-96.5 288,-132.5 398,-132.5 398,-96.5 288,-96.5"/>
<text text-anchor="middle" x="343" y="-110.8" font-family="Times,serif" font-size="14.00">function_4d0</text>
</g>
<!-- Node_function_3d0&#45;&gt;Node_function_4d0 -->
<g id="edge1" class="edge"><title>Node_function_3d0&#45;&gt;Node_function_4d0</title>
<path fill="none" stroke="black" d="M590.725,-171.439C587.438,-170.6 584.178,-169.78 581,-169 509.372,-151.408 490.938,-149.275 419,-133 415.422,-132.191 411.75,-131.356 408.044,-130.512"/>
<polygon fill="black" stroke="black" points="408.725,-127.077 398.196,-128.262 407.166,-133.901 408.725,-127.077"/>
</g>
<!-- Node___cxa_finalize -->
<g id="node16" class="node"><title>Node___cxa_finalize</title>
<polygon fill="none" stroke="#7f7f7f" points="588.5,-96.5 588.5,-132.5 703.5,-132.5 703.5,-96.5 588.5,-96.5"/>
<text text-anchor="middle" x="646" y="-110.8" font-family="Times,serif" font-size="14.00" fill="#7f7f7f">__cxa_finalize</text>
</g>
<!-- Node_function_3d0&#45;&gt;Node___cxa_finalize -->
<g id="edge2" class="edge"><title>Node_function_3d0&#45;&gt;Node___cxa_finalize</title>
<path fill="none" stroke="black" d="M646,-169.313C646,-161.289 646,-151.547 646,-142.569"/>
<polygon fill="black" stroke="black" points="649.5,-142.529 646,-132.529 642.5,-142.529 649.5,-142.529"/>
</g>
<!-- Node_function_444 -->
<g id="node2" class="node"><title>Node_function_444</title>
<polygon fill="none" stroke="red" points="589,-315.5 589,-351.5 699,-351.5 699,-315.5 589,-315.5"/>
<text text-anchor="middle" x="644" y="-329.8" font-family="Times,serif" font-size="14.00" fill="red">function_444</text>
</g>
<!-- Node_function_470 -->
<g id="node3" class="node"><title>Node_function_470</title>
<polygon fill="none" stroke="black" points="0,-169.5 0,-205.5 110,-205.5 110,-169.5 0,-169.5"/>
<text text-anchor="middle" x="55" y="-183.8" font-family="Times,serif" font-size="14.00">function_470</text>
</g>
<!-- Node_function_470&#45;&gt;Node_function_4d0 -->
<g id="edge3" class="edge"><title>Node_function_470&#45;&gt;Node_function_4d0</title>
<path fill="none" stroke="black" d="M110.351,-172.416C114.967,-171.256 119.563,-170.105 124,-169 175.619,-156.149 234.157,-141.864 277.717,-131.289"/>
<polygon fill="black" stroke="black" points="278.72,-134.647 287.613,-128.888 277.07,-127.845 278.72,-134.647"/>
</g>
<!-- Node___cxa_atexit -->
<g id="node14" class="node"><title>Node___cxa_atexit</title>
<polygon fill="none" stroke="#7f7f7f" points="0.5,-96.5 0.5,-132.5 105.5,-132.5 105.5,-96.5 0.5,-96.5"/>
<text text-anchor="middle" x="53" y="-110.8" font-family="Times,serif" font-size="14.00" fill="#7f7f7f">__cxa_atexit</text>
</g>
<!-- Node_function_470&#45;&gt;Node___cxa_atexit -->
<g id="edge4" class="edge"><title>Node_function_470&#45;&gt;Node___cxa_atexit</title>
<path fill="none" stroke="black" d="M54.5159,-169.313C54.2898,-161.289 54.0154,-151.547 53.7625,-142.569"/>
<polygon fill="black" stroke="black" points="57.26,-142.426 53.4797,-132.529 50.2627,-142.623 57.26,-142.426"/>
</g>
<!-- Node_function_4a6 -->
<g id="node4" class="node"><title>Node_function_4a6</title>
<polygon fill="none" stroke="black" points="133,-169.5 133,-205.5 243,-205.5 243,-169.5 133,-169.5"/>
<text text-anchor="middle" x="188" y="-183.8" font-family="Times,serif" font-size="14.00">function_4a6</text>
</g>
<!-- Node_function_4a6&#45;&gt;Node_function_4d0 -->
<g id="edge5" class="edge"><title>Node_function_4a6&#45;&gt;Node_function_4d0</title>
<path fill="none" stroke="black" d="M225.126,-169.494C246.537,-159.686 273.652,-147.266 296.476,-136.811"/>
<polygon fill="black" stroke="black" points="298.005,-139.96 305.639,-132.614 295.09,-133.596 298.005,-139.96"/>
</g>
<!-- Node___stack_chk_fail -->
<g id="node15" class="node"><title>Node___stack_chk_fail</title>
<polygon fill="none" stroke="#7f7f7f" points="124,-96.5 124,-132.5 258,-132.5 258,-96.5 124,-96.5"/>
<text text-anchor="middle" x="191" y="-110.8" font-family="Times,serif" font-size="14.00" fill="#7f7f7f">__stack_chk_fail</text>
</g>
<!-- Node_function_4a6&#45;&gt;Node___stack_chk_fail -->
<g id="edge6" class="edge"><title>Node_function_4a6&#45;&gt;Node___stack_chk_fail</title>
<path fill="none" stroke="black" d="M188.726,-169.313C189.065,-161.289 189.477,-151.547 189.856,-142.569"/>
<polygon fill="black" stroke="black" points="193.355,-142.668 190.28,-132.529 186.361,-142.372 193.355,-142.668"/>
</g>
<!-- Node_function_4dc -->
<g id="node6" class="node"><title>Node_function_4dc</title>
<polygon fill="none" stroke="black" points="717,-315.5 717,-351.5 827,-351.5 827,-315.5 717,-315.5"/>
<text text-anchor="middle" x="772" y="-329.8" font-family="Times,serif" font-size="14.00">function_4dc</text>
</g>
<!-- Node_get_random_key -->
<g id="node7" class="node"><title>Node_get_random_key</title>
<polygon fill="none" stroke="black" points="428.5,-96.5 428.5,-132.5 563.5,-132.5 563.5,-96.5 428.5,-96.5"/>
<text text-anchor="middle" x="496" y="-110.8" font-family="Times,serif" font-size="14.00">get_random_key</text>
</g>
<!-- Node_function_685 -->
<g id="node12" class="node"><title>Node_function_685</title>
<polygon fill="none" stroke="black" points="441,-23.5 441,-59.5 551,-59.5 551,-23.5 441,-23.5"/>
<text text-anchor="middle" x="496" y="-37.8" font-family="Times,serif" font-size="14.00">function_685</text>
</g>
<!-- Node_get_random_key&#45;&gt;Node_function_685 -->
<g id="edge7" class="edge"><title>Node_get_random_key&#45;&gt;Node_function_685</title>
<path fill="none" stroke="black" d="M496,-96.3129C496,-88.2895 496,-78.5475 496,-69.5691"/>
<polygon fill="black" stroke="black" points="499.5,-69.5288 496,-59.5288 492.5,-69.5289 499.5,-69.5288"/>
</g>
<!-- Node_function_510 -->
<g id="node8" class="node"><title>Node_function_510</title>
<polygon fill="none" stroke="black" points="845,-315.5 845,-351.5 955,-351.5 955,-315.5 845,-315.5"/>
<text text-anchor="middle" x="900" y="-329.8" font-family="Times,serif" font-size="14.00">function_510</text>
</g>
<!-- Node_get_generated_key -->
<g id="node9" class="node"><title>Node_get_generated_key</title>
<polygon fill="none" stroke="black" points="419.5,-169.5 419.5,-205.5 572.5,-205.5 572.5,-169.5 419.5,-169.5"/>
<text text-anchor="middle" x="496" y="-183.8" font-family="Times,serif" font-size="14.00">get_generated_key</text>
</g>
<!-- Node_get_generated_key&#45;&gt;Node_function_4d0 -->
<g id="edge8" class="edge"><title>Node_get_generated_key&#45;&gt;Node_function_4d0</title>
<path fill="none" stroke="black" d="M459.353,-169.494C438.312,-159.73 411.691,-147.376 389.224,-136.951"/>
<polygon fill="black" stroke="black" points="390.423,-133.648 379.879,-132.614 387.476,-139.998 390.423,-133.648"/>
</g>
<!-- Node_get_generated_key&#45;&gt;Node_get_random_key -->
<g id="edge9" class="edge"><title>Node_get_generated_key&#45;&gt;Node_get_random_key</title>
<path fill="none" stroke="black" d="M496,-169.313C496,-161.289 496,-151.547 496,-142.569"/>
<polygon fill="black" stroke="black" points="499.5,-142.529 496,-132.529 492.5,-142.529 499.5,-142.529"/>
</g>
<!-- Node_client_secret -->
<g id="node10" class="node"><title>Node_client_secret</title>
<polygon fill="none" stroke="black" points="317,-242.5 317,-278.5 427,-278.5 427,-242.5 317,-242.5"/>
<text text-anchor="middle" x="372" y="-256.8" font-family="Times,serif" font-size="14.00">client_secret</text>
</g>
<!-- Node_client_secret&#45;&gt;Node_function_4d0 -->
<g id="edge10" class="edge"><title>Node_client_secret&#45;&gt;Node_function_4d0</title>
<path fill="none" stroke="black" d="M374.492,-242.175C376.574,-223.726 378.295,-193.824 372,-169 369.597,-159.524 365.142,-149.909 360.433,-141.493"/>
<polygon fill="black" stroke="black" points="363.435,-139.692 355.308,-132.895 357.422,-143.276 363.435,-139.692"/>
</g>
<!-- Node_client_secret&#45;&gt;Node_get_generated_key -->
<g id="edge11" class="edge"><title>Node_client_secret&#45;&gt;Node_get_generated_key</title>
<path fill="none" stroke="black" d="M401.701,-242.494C418.297,-232.991 439.176,-221.036 457.067,-210.792"/>
<polygon fill="black" stroke="black" points="459.173,-213.62 466.111,-205.614 455.694,-207.545 459.173,-213.62"/>
</g>
<!-- Node_malloc -->
<g id="node13" class="node"><title>Node_malloc</title>
<polygon fill="none" stroke="#7f7f7f" points="299,-169.5 299,-205.5 363,-205.5 363,-169.5 299,-169.5"/>
<text text-anchor="middle" x="331" y="-183.8" font-family="Times,serif" font-size="14.00" fill="#7f7f7f">malloc</text>
</g>
<!-- Node_client_secret&#45;&gt;Node_malloc -->
<g id="edge12" class="edge"><title>Node_client_secret&#45;&gt;Node_malloc</title>
<path fill="none" stroke="black" d="M362.075,-242.313C357.24,-233.941 351.325,-223.697 345.958,-214.403"/>
<polygon fill="black" stroke="black" points="348.865,-212.438 340.834,-205.529 342.803,-215.939 348.865,-212.438"/>
</g>
<!-- Node_Java_com_jodelapp_jodelandroidv3_api_HmacInterceptor_generate -->
<g id="node11" class="node"><title>Node_Java_com_jodelapp_jodelandroidv3_api_HmacInterceptor_generate</title>
<polygon fill="none" stroke="red" points="71,-315.5 71,-351.5 571,-351.5 571,-315.5 71,-315.5"/>
<text text-anchor="middle" x="321" y="-329.8" font-family="Times,serif" font-size="14.00" fill="red">Java_com_jodelapp_jodelandroidv3_api_HmacInterceptor_generate</text>
</g>
<!-- Node_Java_com_jodelapp_jodelandroidv3_api_HmacInterceptor_generate&#45;&gt;Node_function_4d0 -->
<g id="edge13" class="edge"><title>Node_Java_com_jodelapp_jodelandroidv3_api_HmacInterceptor_generate&#45;&gt;Node_function_4d0</title>
<path fill="none" stroke="black" d="M311.472,-315.141C296.021,-284.549 269.222,-219.497 290,-169 294.579,-157.872 302.716,-147.83 311.261,-139.532"/>
<polygon fill="black" stroke="black" points="313.735,-142.013 318.796,-132.705 309.035,-136.825 313.735,-142.013"/>
</g>
<!-- Node_Java_com_jodelapp_jodelandroidv3_api_HmacInterceptor_generate&#45;&gt;Node_client_secret -->
<g id="edge14" class="edge"><title>Node_Java_com_jodelapp_jodelandroidv3_api_HmacInterceptor_generate&#45;&gt;Node_client_secret</title>
<path fill="none" stroke="black" d="M333.346,-315.313C339.485,-306.766 347.025,-296.269 353.81,-286.823"/>
<polygon fill="black" stroke="black" points="356.777,-288.693 359.768,-278.529 351.091,-284.609 356.777,-288.693"/>
</g>
</g>
</svg>
