<?xml version="1.0" encoding="UTF-8" standalone="no"?>
<!DOCTYPE svg PUBLIC "-//W3C//DTD SVG 1.1//EN"
 "http://www.w3.org/Graphics/SVG/1.1/DTD/svg11.dtd">
<!-- Generated by graphviz version 2.38.0 (20140413.2041)
 -->
<!-- Title: Control&#45;flow graph for function &#39;function_470(*a1)&#39;. Pages: 1 -->
<svg width="725pt" height="218pt"
 viewBox="0.00 0.00 725.00 218.00" xmlns="http://www.w3.org/2000/svg" xmlns:xlink="http://www.w3.org/1999/xlink">
<g id="graph0" class="graph" transform="scale(1 1) rotate(0) translate(4 214)">
<title>Control&#45;flow graph for function &#39;function_470(*a1)&#39;.</title>
<polygon fill="white" stroke="none" points="-4,4 -4,-214 721,-214 721,4 -4,4"/>
<text text-anchor="middle" x="358.5" y="-7.8" font-family="Times,serif" font-size="14.00">Control&#45;flow graph for function &#39;function_470(*a1)&#39;.</text>
<!-- Node0x3341070 -->
<g id="node1" class="node"><title>Node0x3341070</title>
<polygon fill="none" stroke="black" points="329,-171.5 329,-209.5 388,-209.5 388,-171.5 329,-171.5"/>
<text text-anchor="start" x="337" y="-194.3" font-family="Times,serif" font-size="14.00">entry:</text>
<text text-anchor="start" x="337" y="-179.3" font-family="Times,serif" font-size="14.00"> a1</text>
</g>
<!-- Node0x33de890 -->
<g id="node2" class="node"><title>Node0x33de890</title>
<polygon fill="none" stroke="black" points="-5.68434e-14,-96.5 -5.68434e-14,-134.5 717,-134.5 717,-96.5 -5.68434e-14,-96.5"/>
<text text-anchor="start" x="8" y="-119.3" font-family="Times,serif" font-size="14.00">v1 = function_4d0()</text>
<text text-anchor="start" x="8" y="-104.3" font-family="Times,serif" font-size="14.00"> return __cxa_atexit(IntToPtrCastExpr&lt;ptr&gt;((v1 &#45; 38)), a1, IntToPtrCastExpr&lt;ptr&gt;((v1 + 7050)))</text>
</g>
<!-- Node0x3341070&#45;&gt;Node0x33de890 -->
<g id="edge1" class="edge"><title>Node0x3341070&#45;&gt;Node0x33de890</title>
<path fill="none" stroke="black" d="M358.5,-171.455C358.5,-163.383 358.5,-153.676 358.5,-144.682"/>
<polygon fill="black" stroke="black" points="362,-144.59 358.5,-134.59 355,-144.59 362,-144.59"/>
</g>
<!-- Node0x33d37f0 -->
<g id="node3" class="node"><title>Node0x33d37f0</title>
<polygon fill="none" stroke="black" points="331.5,-23.5 331.5,-59.5 385.5,-59.5 385.5,-23.5 331.5,-23.5"/>
<text text-anchor="start" x="339.5" y="-37.8" font-family="Times,serif" font-size="14.00">exit:</text>
</g>
<!-- Node0x33de890&#45;&gt;Node0x33d37f0 -->
<g id="edge2" class="edge"><title>Node0x33de890&#45;&gt;Node0x33d37f0</title>
<path fill="none" stroke="black" d="M358.5,-96.3314C358.5,-88.394 358.5,-78.9095 358.5,-70.1285"/>
<polygon fill="black" stroke="black" points="362,-69.9177 358.5,-59.9177 355,-69.9177 362,-69.9177"/>
</g>
</g>
</svg>
